<mxfile host="65bd71144e">
    <diagram id="Npzb-lFn8lnhTG-mBdN-" name="Page-1">
        <mxGraphModel dx="953" dy="625" grid="1" gridSize="10" guides="1" tooltips="1" connect="1" arrows="1" fold="1" page="1" pageScale="1" pageWidth="850" pageHeight="1100" background="#ffffff" math="0" shadow="0">
            <root>
                <mxCell id="0"/>
                <mxCell id="1" parent="0"/>
                <mxCell id="2" value="Get" style="whiteSpace=wrap;html=1;" vertex="1" parent="1">
                    <mxGeometry x="10" y="240" width="120" height="60" as="geometry"/>
                </mxCell>
                <mxCell id="3" value="Project_id" style="whiteSpace=wrap;html=1;" vertex="1" parent="1">
                    <mxGeometry x="220" y="110" width="120" height="60" as="geometry"/>
                </mxCell>
                <mxCell id="4" value="Download file or read online document" style="whiteSpace=wrap;html=1;" vertex="1" parent="1">
                    <mxGeometry x="600" y="220" width="120" height="60" as="geometry"/>
                </mxCell>
                <mxCell id="6" value="Specific document" style="rhombus;whiteSpace=wrap;html=1;" vertex="1" parent="1">
                    <mxGeometry x="200" y="200" width="140" height="140" as="geometry"/>
                </mxCell>
                <mxCell id="7" value="Country" style="whiteSpace=wrap;html=1;" vertex="1" parent="1">
                    <mxGeometry x="210" y="370" width="120" height="60" as="geometry"/>
                </mxCell>
                <mxCell id="8" value="Docttype" style="whiteSpace=wrap;html=1;" vertex="1" parent="1">
                    <mxGeometry x="210" y="450" width="120" height="60" as="geometry"/>
                </mxCell>
                <mxCell id="9" value="Start date" style="whiteSpace=wrap;html=1;" vertex="1" parent="1">
                    <mxGeometry x="210" y="530" width="120" height="60" as="geometry"/>
                </mxCell>
                <mxCell id="10" value="End Date" style="whiteSpace=wrap;html=1;" vertex="1" parent="1">
                    <mxGeometry x="210" y="610" width="120" height="60" as="geometry"/>
                </mxCell>
                <mxCell id="11" value="url" style="whiteSpace=wrap;html=1;" vertex="1" parent="1">
                    <mxGeometry x="400" y="490" width="120" height="60" as="geometry"/>
                </mxCell>
                <mxCell id="12" value="Digital project 1" style="whiteSpace=wrap;html=1;" vertex="1" parent="1">
                    <mxGeometry x="760" y="220" width="120" height="60" as="geometry"/>
                </mxCell>
                <mxCell id="27" style="edgeStyle=none;html=1;exitX=1;exitY=0.5;exitDx=0;exitDy=0;entryX=0;entryY=0.5;entryDx=0;entryDy=0;strokeColor=#000033;strokeWidth=2;" edge="1" parent="1" source="13" target="15">
                    <mxGeometry relative="1" as="geometry"/>
                </mxCell>
                <mxCell id="13" value="is_digital_first_search&lt;br&gt;GPT -&amp;nbsp;" style="whiteSpace=wrap;html=1;" vertex="1" parent="1">
                    <mxGeometry x="760" y="320" width="120" height="60" as="geometry"/>
                </mxCell>
                <mxCell id="14" value="Why" style="whiteSpace=wrap;html=1;" vertex="1" parent="1">
                    <mxGeometry x="760" y="390" width="120" height="60" as="geometry"/>
                </mxCell>
                <mxCell id="26" style="edgeStyle=none;html=1;exitX=0.5;exitY=1;exitDx=0;exitDy=0;entryX=0.5;entryY=1;entryDx=0;entryDy=0;strokeColor=#000033;strokeWidth=2;" edge="1" parent="1" source="15" target="16">
                    <mxGeometry relative="1" as="geometry">
                        <mxPoint x="1380" y="600" as="targetPoint"/>
                        <Array as="points">
                            <mxPoint x="1000" y="580"/>
                            <mxPoint x="1600" y="580"/>
                        </Array>
                    </mxGeometry>
                </mxCell>
                <mxCell id="28" style="edgeStyle=none;html=1;exitX=0.5;exitY=0;exitDx=0;exitDy=0;entryX=0.5;entryY=1;entryDx=0;entryDy=0;strokeColor=#000033;strokeWidth=2;" edge="1" parent="1" source="15" target="20">
                    <mxGeometry relative="1" as="geometry"/>
                </mxCell>
                <mxCell id="15" value="yes" style="rhombus;whiteSpace=wrap;html=1;" vertex="1" parent="1">
                    <mxGeometry x="960" y="310" width="80" height="80" as="geometry"/>
                </mxCell>
                <mxCell id="16" value="Response API" style="whiteSpace=wrap;html=1;" vertex="1" parent="1">
                    <mxGeometry x="1540" y="220" width="120" height="60" as="geometry"/>
                </mxCell>
                <mxCell id="17" value="Project Description" style="whiteSpace=wrap;html=1;" vertex="1" parent="1">
                    <mxGeometry x="940" y="130" width="120" height="60" as="geometry"/>
                </mxCell>
                <mxCell id="18" value="Project Components" style="whiteSpace=wrap;html=1;" vertex="1" parent="1">
                    <mxGeometry x="940" y="60" width="120" height="60" as="geometry"/>
                </mxCell>
                <mxCell id="20" value="Regex - Project" style="whiteSpace=wrap;html=1;" vertex="1" parent="1">
                    <mxGeometry x="940" y="220" width="120" height="60" as="geometry"/>
                </mxCell>
                <mxCell id="21" value="Digital Project 2" style="whiteSpace=wrap;html=1;" vertex="1" parent="1">
                    <mxGeometry x="1110" y="220" width="120" height="60" as="geometry"/>
                </mxCell>
                <mxCell id="22" value="is_digital_second_search" style="whiteSpace=wrap;html=1;" vertex="1" parent="1">
                    <mxGeometry x="1110" y="310" width="150" height="60" as="geometry"/>
                </mxCell>
                <mxCell id="24" value="yes" style="rhombus;whiteSpace=wrap;html=1;" vertex="1" parent="1">
                    <mxGeometry x="1145" y="390" width="80" height="80" as="geometry"/>
                </mxCell>
                <mxCell id="25" value="Type of digital project" style="whiteSpace=wrap;html=1;" vertex="1" parent="1">
                    <mxGeometry x="1310" y="310" width="120" height="60" as="geometry"/>
                </mxCell>
            </root>
        </mxGraphModel>
    </diagram>
</mxfile>